<?xml version="1.0" encoding="utf-8" ?>
<svg xmlns="http://www.w3.org/2000/svg" xmlns:xlink="http://www.w3.org/1999/xlink" width="26" height="20">
	<path fill="#0E2154" d="M24.75 0L0.75 0C0.33578643 0 0 0.33578643 0 0.75L0 17.75C0 18.716497 0.78350168 19.5 1.75 19.5L23.75 19.5C24.716497 19.5 25.5 18.716497 25.5 17.75L25.5 0.75C25.5 0.33578643 25.164213 0 24.75 0L24.75 0ZM22.8225 1.5L12.75 10.7325L2.6775 1.5L22.8225 1.5ZM23.75 18L1.75 18C1.6119288 18 1.5 17.888071 1.5 17.75L1.5 2.4549999L12.25 12.3025C12.536582 12.564682 12.975918 12.564682 13.2625 12.3025L24 2.4549999L24 17.75C24 17.888071 23.888071 18 23.75 18Z"/>
</svg>
