<?xml version="1.0" encoding="utf-8" ?>
<svg xmlns="http://www.w3.org/2000/svg" xmlns:xlink="http://www.w3.org/1999/xlink" width="15" height="28">
	<path fill="#0E2154" transform="translate(0.250452 0.130075)" d="M13.50028 6.7507849C13.500659 3.1202335 10.629251 0.13971129 7.0012088 0.0047468836C3.3731668 -0.13021754 0.28824902 2.6287272 0.01888435 6.2492723C-0.25048032 9.8698177 2.3922091 13.054891 6.0002804 13.458285L6.0002804 26.750786C6.0002804 27.164999 6.3360667 27.500786 6.7502804 27.500786C7.1644936 27.500786 7.5002804 27.164999 7.5002804 26.750786L7.5002804 13.458285C10.914469 13.072566 13.495946 10.18669 13.50028 6.7507849ZM6.7502804 12.000785C3.8507853 12.000785 1.5002803 9.65028 1.5002803 6.7507849C1.5002803 3.8512902 3.8507853 1.5007851 6.7502804 1.5007851C9.6497755 1.5007851 12.00028 3.8512902 12.00028 6.7507849C12.00028 8.1431713 11.447157 9.4785299 10.462591 10.463096C9.4780245 11.447661 8.1426668 12.000785 6.7502804 12.000785L6.7502804 12.000785Z"/>
</svg>
