<?xml version="1.0" encoding="utf-8" ?>
<svg xmlns="http://www.w3.org/2000/svg" xmlns:xlink="http://www.w3.org/1999/xlink" width="25" height="25">
	<path fill="#0E2154" transform="translate(0.00704956 0.0809126)" d="M23.44878 16.786665L17.543779 14.140415C17.000221 13.907513 16.375807 13.964876 15.88378 14.292915C15.859202 14.308692 15.835807 14.326239 15.81378 14.345415L12.72753 16.970415C12.662608 17.005816 12.584811 17.008595 12.517529 16.977915C10.53378 16.020414 8.4787798 13.977915 7.5175295 12.021665C7.4850917 11.955423 7.4850917 11.877907 7.5175295 11.811665L10.151279 8.6866646C10.170177 8.6635418 10.187707 8.6393337 10.203779 8.6141653C10.52727 8.120265 10.579912 7.4965472 10.34378 6.9554152L7.7162795 1.060415C7.4097805 0.34561616 6.6683121 -0.081135541 5.8962798 0.012915051C2.5171044 0.45716175 -0.0070541166 3.3409204 1.4810545e-05 6.7491651C1.4810545e-05 16.536665 7.9625297 24.499178 17.750031 24.499178C21.158068 24.505695 24.041513 21.981812 24.48628 18.602915C24.580112 17.834686 24.158184 17.09606 23.44878 16.786665ZM17.750031 22.999184C8.7900295 22.999184 1.5000012 15.709165 1.5000012 6.7491651C1.4913852 4.0958791 3.4535749 1.8484844 6.0837798 1.4991651L6.1125298 1.4991651C6.2156305 1.5010899 6.3069715 1.5661207 6.3425298 1.662915L8.9800301 7.5516648C9.0104704 7.617919 9.0104704 7.6941609 8.9800301 7.7604151L6.3412795 10.892915C6.3215933 10.915277 6.3036256 10.939095 6.2875295 10.964165C5.9516912 11.476858 5.9085422 12.127884 6.1737795 12.680415C7.2825298 14.950415 9.5700293 17.220415 11.865029 18.329165C12.420861 18.59297 13.074395 18.545509 13.58628 18.204165C13.610029 18.187916 13.63378 18.170416 13.65628 18.151665L16.74128 15.526665C16.802935 15.493534 16.87598 15.488969 16.94128 15.514165L22.84753 18.160416C22.946466 18.202547 23.007378 18.303225 22.998779 18.410416C22.651295 21.041853 20.404303 23.0063 17.750031 22.999184Z"/>
</svg>
